<mxfile host="app.diagrams.net" agent="Mozilla/5.0 (Macintosh; Intel Mac OS X 10_15_7) AppleWebKit/537.36 (KHTML, like Gecko) Chrome/139.0.0.0 Safari/537.36" version="28.1.2">
  <diagram name="ページ1" id="VWp0FtQjAIjXrI62QbL7">
    <mxGraphModel dx="2015" dy="1126" grid="1" gridSize="10" guides="1" tooltips="1" connect="1" arrows="1" fold="1" page="1" pageScale="1" pageWidth="827" pageHeight="1169" math="0" shadow="0">
      <root>
        <mxCell id="0" />
        <mxCell id="1" parent="0" />
        <mxCell id="n0UkWNKR1cxKA_Wy6Sln-1" value="&lt;p style=&quot;margin: 0px; font-variant-numeric: normal; font-variant-east-asian: normal; font-variant-alternates: normal; font-size-adjust: none; font-kerning: auto; font-optical-sizing: auto; font-feature-settings: normal; font-variation-settings: normal; font-variant-position: normal; font-variant-emoji: normal; font-stretch: normal; line-height: normal; font-family: Menlo; text-align: start;&quot; class=&quot;p1&quot;&gt;[R]: Review TFTP parameters.&lt;/p&gt;" style="rounded=1;whiteSpace=wrap;html=1;absoluteArcSize=1;arcSize=14;strokeWidth=2;" parent="1" vertex="1">
          <mxGeometry x="390" y="120" width="220" height="50" as="geometry" />
        </mxCell>
        <mxCell id="n0UkWNKR1cxKA_Wy6Sln-2" value="&lt;p style=&quot;margin: 0px; font-variant-numeric: normal; font-variant-east-asian: normal; font-variant-alternates: normal; font-size-adjust: none; font-kerning: auto; font-optical-sizing: auto; font-feature-settings: normal; font-variation-settings: normal; font-variant-position: normal; font-variant-emoji: normal; font-stretch: normal; line-height: normal; font-family: Menlo; text-align: start;&quot; class=&quot;p1&quot;&gt;[C]: Configure TFTP parameters.&lt;/p&gt;" style="rounded=1;whiteSpace=wrap;html=1;absoluteArcSize=1;arcSize=14;strokeWidth=2;" parent="1" vertex="1">
          <mxGeometry x="50" y="60" width="240" height="50" as="geometry" />
        </mxCell>
        <mxCell id="n0UkWNKR1cxKA_Wy6Sln-3" value="" style="endArrow=none;html=1;rounded=1;entryX=1;entryY=0.5;entryDx=0;entryDy=0;curved=0;strokeWidth=2;exitX=0;exitY=0.5;exitDx=0;exitDy=0;" parent="1" source="n0UkWNKR1cxKA_Wy6Sln-1" target="n0UkWNKR1cxKA_Wy6Sln-2" edge="1">
          <mxGeometry width="50" height="50" relative="1" as="geometry">
            <mxPoint x="360" y="190" as="sourcePoint" />
            <mxPoint x="340" y="110" as="targetPoint" />
            <Array as="points">
              <mxPoint x="350" y="145" />
            </Array>
          </mxGeometry>
        </mxCell>
        <mxCell id="n0UkWNKR1cxKA_Wy6Sln-5" value="" style="endArrow=classicThin;html=1;rounded=0;exitX=1;exitY=0.5;exitDx=0;exitDy=0;strokeWidth=2;entryX=0;entryY=0.5;entryDx=0;entryDy=0;endFill=1;" parent="1" source="n0UkWNKR1cxKA_Wy6Sln-2" target="n0UkWNKR1cxKA_Wy6Sln-8" edge="1">
          <mxGeometry width="50" height="50" relative="1" as="geometry">
            <mxPoint x="320" y="60" as="sourcePoint" />
            <mxPoint x="490" y="85" as="targetPoint" />
          </mxGeometry>
        </mxCell>
        <mxCell id="n0UkWNKR1cxKA_Wy6Sln-6" value="&lt;p style=&quot;margin: 0px; font-variant-numeric: normal; font-variant-east-asian: normal; font-variant-alternates: normal; font-size-adjust: none; font-kerning: auto; font-optical-sizing: auto; font-feature-settings: normal; font-variation-settings: normal; font-variant-position: normal; font-variant-emoji: normal; font-stretch: normal; line-height: normal; font-family: Menlo; text-align: start;&quot; class=&quot;p1&quot;&gt;[C]: Configure TFTP parameters.&lt;/p&gt;" style="rounded=1;whiteSpace=wrap;html=1;absoluteArcSize=1;arcSize=14;strokeWidth=2;" parent="1" vertex="1">
          <mxGeometry x="730" y="150" width="240" height="50" as="geometry" />
        </mxCell>
        <mxCell id="n0UkWNKR1cxKA_Wy6Sln-7" value="" style="endArrow=none;html=1;rounded=0;exitX=1;exitY=0.5;exitDx=0;exitDy=0;strokeWidth=2;entryX=0;entryY=0.5;entryDx=0;entryDy=0;" parent="1" source="n0UkWNKR1cxKA_Wy6Sln-1" target="n0UkWNKR1cxKA_Wy6Sln-6" edge="1">
          <mxGeometry width="50" height="50" relative="1" as="geometry">
            <mxPoint x="690" y="160" as="sourcePoint" />
            <mxPoint x="890" y="160" as="targetPoint" />
          </mxGeometry>
        </mxCell>
        <mxCell id="n0UkWNKR1cxKA_Wy6Sln-8" value="&lt;p style=&quot;margin: 0px; font-variant-numeric: normal; font-variant-east-asian: normal; font-variant-alternates: normal; font-size-adjust: none; font-kerning: auto; font-optical-sizing: auto; font-feature-settings: normal; font-variation-settings: normal; font-variant-position: normal; font-variant-emoji: normal; font-stretch: normal; line-height: normal; font-family: Menlo; text-align: start;&quot; class=&quot;p1&quot;&gt;[N]: Diagnose networking(ping).&lt;/p&gt;" style="rounded=1;whiteSpace=wrap;html=1;absoluteArcSize=1;arcSize=14;strokeWidth=2;" parent="1" vertex="1">
          <mxGeometry x="950" y="60" width="240" height="50" as="geometry" />
        </mxCell>
        <mxCell id="n0UkWNKR1cxKA_Wy6Sln-13" value="" style="endArrow=none;html=1;rounded=1;curved=0;strokeWidth=2;exitX=1;exitY=0.5;exitDx=0;exitDy=0;" parent="1" source="n0UkWNKR1cxKA_Wy6Sln-6" target="n0UkWNKR1cxKA_Wy6Sln-8" edge="1">
          <mxGeometry width="50" height="50" relative="1" as="geometry">
            <mxPoint x="970" y="180" as="sourcePoint" />
            <mxPoint x="1070" y="100" as="targetPoint" />
            <Array as="points">
              <mxPoint x="1070" y="175" />
            </Array>
          </mxGeometry>
        </mxCell>
        <mxCell id="n0UkWNKR1cxKA_Wy6Sln-14" value="&lt;p style=&quot;margin: 0px; font-variant-numeric: normal; font-variant-east-asian: normal; font-variant-alternates: normal; font-size-adjust: none; font-kerning: auto; font-optical-sizing: auto; font-feature-settings: normal; font-variation-settings: normal; font-variant-position: normal; font-variant-emoji: normal; font-stretch: normal; line-height: normal; font-family: Menlo; text-align: start;&quot; class=&quot;p1&quot;&gt;[1]: Ping remote TFTP server.&lt;/p&gt;" style="rounded=1;whiteSpace=wrap;html=1;absoluteArcSize=1;arcSize=14;strokeWidth=2;" parent="1" vertex="1">
          <mxGeometry x="44.5" y="320" width="240" height="50" as="geometry" />
        </mxCell>
        <mxCell id="n0UkWNKR1cxKA_Wy6Sln-15" value="" style="endArrow=classic;html=1;rounded=1;exitX=1;exitY=0.5;exitDx=0;exitDy=0;strokeWidth=2;entryX=0.5;entryY=0;entryDx=0;entryDy=0;endFill=1;curved=0;" parent="1" source="n0UkWNKR1cxKA_Wy6Sln-8" target="n0UkWNKR1cxKA_Wy6Sln-14" edge="1">
          <mxGeometry width="50" height="50" relative="1" as="geometry">
            <mxPoint x="1030" y="90" as="sourcePoint" />
            <mxPoint x="1120" y="85" as="targetPoint" />
            <Array as="points">
              <mxPoint x="1090" y="85" />
              <mxPoint x="1090" y="250" />
              <mxPoint x="165" y="250" />
            </Array>
          </mxGeometry>
        </mxCell>
        <mxCell id="n0UkWNKR1cxKA_Wy6Sln-16" value="&lt;p style=&quot;margin: 0px; font-variant-numeric: normal; font-variant-east-asian: normal; font-variant-alternates: normal; font-size-adjust: none; font-kerning: auto; font-optical-sizing: auto; font-feature-settings: normal; font-variation-settings: normal; font-variant-position: normal; font-variant-emoji: normal; font-stretch: normal; line-height: normal; font-family: Menlo; text-align: start;&quot; class=&quot;p1&quot;&gt;[2]: Ping gateway.&lt;/p&gt;" style="rounded=1;whiteSpace=wrap;html=1;absoluteArcSize=1;arcSize=14;strokeWidth=2;" parent="1" vertex="1">
          <mxGeometry x="360" y="320" width="150" height="50" as="geometry" />
        </mxCell>
        <mxCell id="n0UkWNKR1cxKA_Wy6Sln-18" value="&lt;p style=&quot;margin: 0px; font-variant-numeric: normal; font-variant-east-asian: normal; font-variant-alternates: normal; font-size-adjust: none; font-kerning: auto; font-optical-sizing: auto; font-feature-settings: normal; font-variation-settings: normal; font-variant-position: normal; font-variant-emoji: normal; font-stretch: normal; line-height: normal; font-family: Menlo; text-align: start;&quot; class=&quot;p1&quot;&gt;[Q]: Quit this menu.&lt;/p&gt;" style="rounded=1;whiteSpace=wrap;html=1;absoluteArcSize=1;arcSize=14;strokeWidth=2;" parent="1" vertex="1">
          <mxGeometry x="585" y="320" width="170" height="50" as="geometry" />
        </mxCell>
        <mxCell id="n0UkWNKR1cxKA_Wy6Sln-19" value="" style="endArrow=classic;html=1;rounded=0;exitX=1;exitY=0.5;exitDx=0;exitDy=0;strokeWidth=2;entryX=0;entryY=0.5;entryDx=0;entryDy=0;endFill=1;" parent="1" source="n0UkWNKR1cxKA_Wy6Sln-14" target="n0UkWNKR1cxKA_Wy6Sln-16" edge="1">
          <mxGeometry width="50" height="50" relative="1" as="geometry">
            <mxPoint x="279" y="304.5" as="sourcePoint" />
            <mxPoint x="375" y="304.5" as="targetPoint" />
          </mxGeometry>
        </mxCell>
        <mxCell id="n0UkWNKR1cxKA_Wy6Sln-26" value="" style="endArrow=classic;html=1;rounded=0;exitX=1;exitY=0.5;exitDx=0;exitDy=0;strokeWidth=2;entryX=0;entryY=0.5;entryDx=0;entryDy=0;endFill=1;" parent="1" source="n0UkWNKR1cxKA_Wy6Sln-16" target="n0UkWNKR1cxKA_Wy6Sln-18" edge="1">
          <mxGeometry width="50" height="50" relative="1" as="geometry">
            <mxPoint x="600.5" y="344.5" as="sourcePoint" />
            <mxPoint x="675.5" y="344.5" as="targetPoint" />
          </mxGeometry>
        </mxCell>
        <mxCell id="n0UkWNKR1cxKA_Wy6Sln-27" value="&lt;p style=&quot;margin: 0px; font-variant-numeric: normal; font-variant-east-asian: normal; font-variant-alternates: normal; font-size-adjust: none; font-kerning: auto; font-optical-sizing: auto; font-feature-settings: normal; font-variation-settings: normal; font-variant-position: normal; font-variant-emoji: normal; font-stretch: normal; line-height: normal; font-family: Menlo; text-align: start;&quot; class=&quot;p1&quot;&gt;[Q]: Quit this menu.&lt;/p&gt;" style="rounded=1;whiteSpace=wrap;html=1;absoluteArcSize=1;arcSize=14;strokeWidth=2;" parent="1" vertex="1">
          <mxGeometry x="830" y="320" width="170" height="50" as="geometry" />
        </mxCell>
        <mxCell id="n0UkWNKR1cxKA_Wy6Sln-28" value="" style="endArrow=classic;html=1;rounded=0;exitX=1;exitY=0.5;exitDx=0;exitDy=0;strokeWidth=2;entryX=0;entryY=0.5;entryDx=0;entryDy=0;endFill=1;" parent="1" target="n0UkWNKR1cxKA_Wy6Sln-27" edge="1">
          <mxGeometry width="50" height="50" relative="1" as="geometry">
            <mxPoint x="755" y="345" as="sourcePoint" />
            <mxPoint x="829.5" y="344.5" as="targetPoint" />
          </mxGeometry>
        </mxCell>
        <mxCell id="n0UkWNKR1cxKA_Wy6Sln-30" value="&lt;p style=&quot;margin: 0px; font-variant-numeric: normal; font-variant-east-asian: normal; font-variant-alternates: normal; font-size-adjust: none; font-kerning: auto; font-optical-sizing: auto; font-feature-settings: normal; font-variation-settings: normal; font-variant-position: normal; font-variant-emoji: normal; font-stretch: normal; line-height: normal; font-family: Menlo; text-align: start;&quot; class=&quot;p1&quot;&gt;[T]: Initiate TFTP firmware transfer.&lt;/p&gt;" style="rounded=1;whiteSpace=wrap;html=1;absoluteArcSize=1;arcSize=14;strokeWidth=2;" parent="1" vertex="1">
          <mxGeometry x="44.5" y="480" width="285.5" height="50" as="geometry" />
        </mxCell>
        <mxCell id="n0UkWNKR1cxKA_Wy6Sln-31" value="" style="endArrow=classic;html=1;rounded=1;exitX=1;exitY=0.5;exitDx=0;exitDy=0;strokeWidth=2;entryX=0.5;entryY=0;entryDx=0;entryDy=0;endFill=1;curved=0;" parent="1" source="n0UkWNKR1cxKA_Wy6Sln-27" target="n0UkWNKR1cxKA_Wy6Sln-30" edge="1">
          <mxGeometry width="50" height="50" relative="1" as="geometry">
            <mxPoint x="1005" y="340" as="sourcePoint" />
            <mxPoint x="140" y="575" as="targetPoint" />
            <Array as="points">
              <mxPoint x="1065" y="345" />
              <mxPoint x="1065" y="420" />
              <mxPoint x="187" y="420" />
            </Array>
          </mxGeometry>
        </mxCell>
      </root>
    </mxGraphModel>
  </diagram>
</mxfile>
